<?xml version="1.0"?>
<svg width="640" height="480" xmlns="http://www.w3.org/2000/svg" xmlns:svg="http://www.w3.org/2000/svg">
 <!-- Created with SVG-edit - https://github.com/SVG-Edit/svgedit-->
 <g class="layer">
  <title>Layer 1</title>
  <path d="m57.25568,99.152816c0,-7.242928 5.866784,-13.109706 13.109706,-13.109706c7.242933,0 13.109695,5.866778 13.109695,13.109706c0,7.242928 -5.866762,13.109706 -13.109695,13.109706c-7.242933,0 -13.109706,-5.866778 -13.109706,-13.109706zm44.07707,37.108839l0,-6.620778c0,-6.96603 -5.643934,-12.614001 -12.614001,-12.614001l-36.747337,0c-6.96603,0 -12.613996,5.647971 -12.613996,12.614001l0,6.620778c-0.012181,0.150279 -0.020314,0.304639 -0.020314,0.461015l0,38.134467c0,2.963103 2.400554,5.363636 5.363652,5.363636c2.959044,0 5.365667,-2.400544 5.365667,-5.363636l0,-37.569865l3.596743,0l0,42.937559l0.026399,0l0,60.669478c0,3.944021 3.202762,7.148799 7.150848,7.148799c3.950123,0 7.150848,-3.200714 7.150848,-7.148799l0,-60.669478l4.717814,0l0,60.669478c0,3.944021 3.204745,7.148799 7.150837,7.148799c3.950106,0 7.150831,-3.200714 7.150831,-7.148799l0,-60.669478l0.022341,0l0,-42.937559l3.596749,0l0,37.567822c0,2.963108 2.406618,5.365673 5.365673,5.365673c2.963135,0 5.363652,-2.402565 5.363652,-5.365673l0,-38.134456c-0.002016,-0.158407 -0.014218,-0.308703 -0.026405,-0.458988l0,0.000005z" fill="#000000" id="svg_1" stroke="#000000" stroke-width="5"/>
  <path d="m96.681508,118.414554l-7.973978,6.39887l0,58.322273l71.613711,0.148131l9.038629,-6.547142l0,-58.322134l-72.678362,0l0,0.000002zm64.07428,6.294257l0,58.583671m0,-58.583671l9.038629,-6.416307m-9.038629,6.695277l-71.961351,-0.27897" fill="#000000" fill-opacity="0" id="svg_3" stroke="#000000" stroke-width="5"/>
  <path d="m101.912431,172.427885l-4.332438,3.384616m49.823041,-3.237458l4.15192,3.237458m-4.15192,-40.321072l4.15192,-3.531773m-49.642523,3.384616l-4.15192,-3.237458m4.15192,3.16388l45.490603,0l0,37.083614l-45.490603,0l0,-37.083614zm-4.242179,-3.458194l53.974961,0l0,44.000002l-53.974961,0l0,-44.000002z" fill="#000000" fill-opacity="0" id="svg_5" stroke="#000000" stroke-dasharray="null" stroke-linecap="null" stroke-linejoin="null" stroke-width="5"/>
  <path d="m72.647484,207.106256l18.999998,-19.000001l56.999998,0l-19.000001,19.000001l-56.999995,0z" fill="#000000" id="svg_6" stroke="#000000" stroke-dasharray="null" stroke-linecap="null" stroke-linejoin="null" stroke-width="5"/>
  <text fill="#000000" font-family="serif" font-size="24" id="svg_7" stroke="#000000" stroke-dasharray="null" stroke-linecap="null" stroke-linejoin="null" stroke-width="0" text-anchor="middle" x="201.5" xml:space="preserve" y="243.5">SYSTEMS PREMIUM</text>
 </g>
</svg>